<svg xmlns="http://www.w3.org/2000/svg" version="1.1" xmlns:xlink="http://www.w3.org/1999/xlink" xmlns:svgjs="http://svgjs.com/svgjs" width="1440" height="560" preserveAspectRatio="none" viewBox="0 0 1440 560"><g mask="url(&quot;#SvgjsMask1018&quot;)" fill="none"><rect width="1440" height="560" x="0" y="0" fill="#0e2a47"></rect><path d="M194 313L193 -89" stroke-width="10" stroke="url(#SvgjsLinearGradient1019)" stroke-linecap="round" class="Down"></path><path d="M503 178L502 -53" stroke-width="10" stroke="url(#SvgjsLinearGradient1020)" stroke-linecap="round" class="Up"></path><path d="M1250 460L1249 297" stroke-width="8" stroke="url(#SvgjsLinearGradient1019)" stroke-linecap="round" class="Down"></path><path d="M1154 96L1153 237" stroke-width="8" stroke="url(#SvgjsLinearGradient1020)" stroke-linecap="round" class="Up"></path><path d="M920 194L919 523" stroke-width="10" stroke="url(#SvgjsLinearGradient1020)" stroke-linecap="round" class="Up"></path><path d="M542 256L541 -3" stroke-width="6" stroke="url(#SvgjsLinearGradient1019)" stroke-linecap="round" class="Down"></path><path d="M581 394L580 17" stroke-width="10" stroke="url(#SvgjsLinearGradient1020)" stroke-linecap="round" class="Up"></path><path d="M1289 14L1288 -206" stroke-width="8" stroke="url(#SvgjsLinearGradient1020)" stroke-linecap="round" class="Up"></path><path d="M372 108L371 -43" stroke-width="10" stroke="url(#SvgjsLinearGradient1020)" stroke-linecap="round" class="Up"></path><path d="M398 392L397 127" stroke-width="10" stroke="url(#SvgjsLinearGradient1019)" stroke-linecap="round" class="Down"></path><path d="M1320 23L1319 407" stroke-width="10" stroke="url(#SvgjsLinearGradient1020)" stroke-linecap="round" class="Up"></path><path d="M131 367L130 638" stroke-width="10" stroke="url(#SvgjsLinearGradient1020)" stroke-linecap="round" class="Up"></path><path d="M853 14L852 255" stroke-width="6" stroke="url(#SvgjsLinearGradient1019)" stroke-linecap="round" class="Down"></path><path d="M570 517L569 268" stroke-width="10" stroke="url(#SvgjsLinearGradient1019)" stroke-linecap="round" class="Down"></path><path d="M1380 466L1379 306" stroke-width="8" stroke="url(#SvgjsLinearGradient1019)" stroke-linecap="round" class="Down"></path><path d="M1310 6L1309 160" stroke-width="10" stroke="url(#SvgjsLinearGradient1019)" stroke-linecap="round" class="Down"></path><path d="M18 358L17 36" stroke-width="8" stroke="url(#SvgjsLinearGradient1019)" stroke-linecap="round" class="Down"></path><path d="M688 114L687 273" stroke-width="6" stroke="url(#SvgjsLinearGradient1020)" stroke-linecap="round" class="Up"></path><path d="M1292 279L1291 -105" stroke-width="6" stroke="url(#SvgjsLinearGradient1020)" stroke-linecap="round" class="Up"></path><path d="M366 46L365 -117" stroke-width="8" stroke="url(#SvgjsLinearGradient1020)" stroke-linecap="round" class="Up"></path><path d="M1291 451L1290 743" stroke-width="8" stroke="url(#SvgjsLinearGradient1020)" stroke-linecap="round" class="Up"></path><path d="M480 236L479 24" stroke-width="8" stroke="url(#SvgjsLinearGradient1019)" stroke-linecap="round" class="Down"></path><path d="M391 87L390 379" stroke-width="10" stroke="url(#SvgjsLinearGradient1020)" stroke-linecap="round" class="Up"></path><path d="M145 210L144 -197" stroke-width="8" stroke="url(#SvgjsLinearGradient1019)" stroke-linecap="round" class="Down"></path><path d="M620 512L619 825" stroke-width="6" stroke="url(#SvgjsLinearGradient1020)" stroke-linecap="round" class="Up"></path><path d="M1328 267L1327 632" stroke-width="8" stroke="url(#SvgjsLinearGradient1020)" stroke-linecap="round" class="Up"></path><path d="M914 228L913 27" stroke-width="10" stroke="url(#SvgjsLinearGradient1019)" stroke-linecap="round" class="Down"></path><path d="M330 274L329 674" stroke-width="10" stroke="url(#SvgjsLinearGradient1020)" stroke-linecap="round" class="Up"></path><path d="M625 259L624 656" stroke-width="8" stroke="url(#SvgjsLinearGradient1019)" stroke-linecap="round" class="Down"></path><path d="M1261 394L1260 569" stroke-width="6" stroke="url(#SvgjsLinearGradient1019)" stroke-linecap="round" class="Down"></path><path d="M494 374L493 644" stroke-width="6" stroke="url(#SvgjsLinearGradient1020)" stroke-linecap="round" class="Up"></path><path d="M600 6L599 -278" stroke-width="10" stroke="url(#SvgjsLinearGradient1019)" stroke-linecap="round" class="Down"></path><path d="M323 390L322 809" stroke-width="10" stroke="url(#SvgjsLinearGradient1019)" stroke-linecap="round" class="Down"></path><path d="M814 411L813 565" stroke-width="8" stroke="url(#SvgjsLinearGradient1020)" stroke-linecap="round" class="Up"></path><path d="M142 523L141 274" stroke-width="10" stroke="url(#SvgjsLinearGradient1020)" stroke-linecap="round" class="Up"></path><path d="M620 517L619 721" stroke-width="10" stroke="url(#SvgjsLinearGradient1020)" stroke-linecap="round" class="Up"></path></g><defs><mask id="SvgjsMask1018"><rect width="1440" height="560" fill="#ffffff"></rect></mask><linearGradient x1="0%" y1="0%" x2="0%" y2="100%" id="SvgjsLinearGradient1019"><stop stop-color="rgba(28, 83, 142, 0)" offset="0"></stop><stop stop-color="#1c538e" offset="1"></stop></linearGradient><linearGradient x1="0%" y1="100%" x2="0%" y2="0%" id="SvgjsLinearGradient1020"><stop stop-color="rgba(28, 83, 142, 0)" offset="0"></stop><stop stop-color="#1c538e" offset="1"></stop></linearGradient></defs></svg>